<?xml version="1.0" encoding="UTF-8"?><svg id="Layer_1" xmlns="http://www.w3.org/2000/svg" viewBox="0 0 259.82 94.76"><defs><style>.cls-1{fill:#064265;}.cls-2{fill:#010101;}</style></defs><path class="cls-1" d="M157.27,53.01v-3.6H49.85l-.24.02-.21-.02H0v3.6h20.07v38.16H0v3.6h157.27v-3.6h-16.98v-38.16h16.98ZM22.45,53.01h24.57l-24.57,37.13v-37.13ZM48.92,91.17h-23.79l23.79-35.95v35.95ZM137.91,91.17h-26.46l25.25-38.16h1.21v38.16ZM110.06,53.01h23.28l-23.28,35.18v-35.18ZM51.31,91.17v-37.34l24.72,37.34h-24.72ZM77.45,88.23l-23.3-35.22h23.3v35.22ZM79.83,91.17v-35.87l25.98,35.87h-25.98ZM107.68,88.88l-25.98-35.87h25.98v35.87Z"/><path class="cls-2" d="M31.1.65h8.71v40.05h-12.55L9.71,11.96h-1v28.74H0V.65h11.77v.04h.77l17.53,28.7h1.03V.65Z"/><path class="cls-2" d="M77.43.65v7.87h-24.21v8.22h24.21v7.87h-24.21v8.12h24.21v7.97h-24.21s-8.71,0-8.71,0V.65h32.92Z"/><path class="cls-2" d="M116.14.65v7.87h-25.39v8.22h24.21v7.87h-24.21v16.09h-8.71V.65h34.1Z"/><path class="cls-2" d="M118.42.65h38.98v7.95h-15.13v32.1h-8.71V8.6h-15.13V.65Z"/><path class="cls-2" d="M189.2,25.46h9.05c-.79,8.94-8.57,15.24-19.75,15.24s-20.28-6.94-20.28-20.35S167.01,0,178.51,0s19.19,6.71,19.74,15.24h-9.02c-1.25-4.31-4.25-6.36-10.72-6.36-6.85,0-11.59,3.51-11.59,11.47s4.74,11.47,11.59,11.47,9.59-2.41,10.7-6.36h0Z"/><path class="cls-2" d="M231.35.65h8.71v40.05h-8.71v-16.09h-20.92v16.09h-8.71V.65h8.71v16.09h20.92V.65Z"/><path class="cls-2" d="M244.77,40.7V.65h8.71v40.05h-8.71Z"/><path class="cls-2" d="M168.55,61.07c-.69,0-1.33-.05-1.92-.15-.59-.1-1.1-.24-1.54-.43v-1.98c.49.2,1.01.36,1.58.48.56.12,1.12.18,1.66.18.78,0,1.35-.07,1.71-.22.37-.14.55-.47.55-.98,0-.32-.08-.58-.23-.76s-.42-.36-.81-.51-.92-.32-1.62-.51c-1.12-.31-1.9-.7-2.36-1.16-.45-.47-.68-1.11-.68-1.93,0-.99.36-1.74,1.08-2.28.72-.53,1.77-.8,3.14-.8.64,0,1.24.04,1.79.13.55.09,1,.19,1.35.32v1.98c-.91-.34-1.86-.52-2.84-.52-.7,0-1.25.08-1.65.22-.4.15-.6.46-.6.94,0,.28.07.5.22.66.14.17.39.32.74.45.35.13.84.28,1.47.45.87.23,1.55.51,2.03.83.48.32.81.69.99,1.1s.27.87.27,1.38c0,.93-.35,1.68-1.06,2.24-.71.56-1.8.85-3.27.85Z"/><path class="cls-2" d="M174.39,60.91v-10.7h5.02c.84,0,1.53.16,2.07.48.54.32.94.76,1.2,1.31s.4,1.18.4,1.89-.15,1.36-.46,1.91c-.3.55-.74.98-1.3,1.29-.56.3-1.22.46-1.99.46h-2.71v3.36h-2.24ZM176.63,55.77h2.24c.64,0,1.13-.17,1.45-.51.33-.34.49-.79.49-1.37,0-.62-.16-1.09-.46-1.42-.31-.33-.78-.49-1.4-.49h-2.33v3.79Z"/><path class="cls-2" d="M184.29,60.91v-10.7h7.67v1.74h-5.43v2.74h4.82v1.73h-4.82v2.76h5.43v1.73h-7.67Z"/><path class="cls-2" d="M198.55,61.07c-1.79,0-3.17-.48-4.12-1.45s-1.43-2.29-1.43-3.96c0-1.77.46-3.15,1.39-4.14.92-.99,2.31-1.48,4.14-1.48.64,0,1.22.05,1.74.14.52.09,1,.22,1.45.39v1.96c-.94-.39-1.95-.58-3.02-.58-1.22,0-2.09.3-2.63.91-.53.61-.8,1.54-.8,2.79,0,2.35,1.15,3.52,3.46,3.52.52,0,1.04-.05,1.54-.14.51-.09,1-.24,1.46-.42v1.98c-.45.14-.94.26-1.45.35-.51.09-1.09.13-1.74.13Z"/><path class="cls-2" d="M203.37,60.91v-10.7h2.24v10.7h-2.24Z"/><path class="cls-2" d="M206.97,60.91l4.09-10.7h2.46l4.07,10.7h-2.33l-1.01-2.57h-3.94l-1,2.57h-2.34ZM210.64,56.61h3.27l-1.64-4.3-1.63,4.3Z"/><path class="cls-2" d="M218.96,60.91v-10.7h2.24v8.97h5.27v1.73h-7.51Z"/><path class="cls-2" d="M227.66,60.91v-10.7h2.24v10.7h-2.24Z"/><path class="cls-2" d="M231.29,60.91v-1.16l5.38-7.67h-5.12v-1.86h8.04v1.36l-5.33,7.61h5.42v1.73h-8.39Z"/><path class="cls-2" d="M241.16,60.91v-10.7h7.67v1.74h-5.43v2.74h4.82v1.73h-4.82v2.76h5.43v1.73h-7.67Z"/><path class="cls-2" d="M250.48,60.91v-10.7h4.48c1.61,0,2.82.41,3.63,1.24.81.82,1.22,2.21,1.22,4.16,0,1.84-.4,3.18-1.2,4.03-.8.85-2.02,1.27-3.65,1.27h-4.48ZM252.73,59.18h1.93c.63,0,1.16-.1,1.59-.29.43-.19.76-.55.97-1.06.22-.52.32-1.25.32-2.22s-.1-1.7-.3-2.21c-.2-.51-.51-.86-.93-1.05s-.97-.28-1.66-.28h-1.93v7.11Z"/><path class="cls-2" d="M165.23,77.52v-10.7h2.26l3.14,6.43,3.14-6.43h2.24v10.7h-2.24v-6.96l-2.49,5.12h-1.3l-2.51-5.12v6.96h-2.24Z"/><path class="cls-2" d="M182.8,77.69c-3.47,0-5.2-1.82-5.2-5.46,0-1.96.44-3.38,1.31-4.25s2.17-1.31,3.89-1.31,3.01.44,3.89,1.31c.88.88,1.31,2.29,1.31,4.25,0,3.64-1.73,5.46-5.2,5.46ZM182.8,75.77c1.01,0,1.75-.29,2.22-.87s.71-1.48.71-2.68c0-1.34-.24-2.28-.71-2.83-.47-.55-1.21-.82-2.22-.82s-1.75.27-2.22.82c-.47.55-.71,1.49-.71,2.83,0,1.21.24,2.1.71,2.68.47.58,1.21.87,2.22.87Z"/><path class="cls-2" d="M189.57,77.52v-10.7h1.94l5.07,7.13v-7.13h2.24v10.7h-1.94l-5.07-7.13v7.13h-2.24Z"/><path class="cls-2" d="M203.31,77.52v-8.97h-3.29v-1.73h8.8v1.73h-3.27v8.97h-2.24Z"/><path class="cls-2" d="M208.2,77.52l4.09-10.7h2.46l4.07,10.7h-2.33l-1.01-2.57h-3.94l-1,2.57h-2.34ZM211.87,73.22h3.27l-1.64-4.3-1.63,4.3Z"/><path class="cls-2" d="M224.83,77.69c-1.79,0-3.16-.47-4.09-1.41s-1.4-2.25-1.4-3.92c0-1.77.47-3.16,1.41-4.18s2.34-1.52,4.2-1.52c.64,0,1.22.04,1.74.11.52.07,1.01.19,1.48.34v1.93c-.46-.17-.96-.29-1.47-.36-.52-.07-1.04-.11-1.59-.11-1.27,0-2.18.31-2.71.94-.53.63-.8,1.58-.8,2.85,0,2.29,1.08,3.44,3.24,3.44.38,0,.74-.03,1.1-.09s.68-.14.96-.24v-2.49h-2.49v-1.43h4.39v5.23c-.36.23-.87.44-1.53.63-.65.19-1.47.28-2.46.28Z"/><path class="cls-2" d="M230.55,77.52v-10.7h7.67v1.74h-5.43v2.74h4.82v1.73h-4.82v2.76h5.43v1.73h-7.67Z"/><path class="cls-2" d="M165.23,94.13v-10.7h7.52v1.74h-5.28v2.74h4.67v1.73h-4.67v4.48h-2.24Z"/><path class="cls-2" d="M173.96,94.13v-10.7h2.24v10.7h-2.24Z"/><path class="cls-2" d="M178.17,94.13v-10.7h5.13c1.23,0,2.13.32,2.71.97.58.65.86,1.52.86,2.62,0,.72-.19,1.34-.56,1.86-.37.52-.89.9-1.57,1.13.18.14.32.3.42.47.1.17.21.39.32.66l1.3,2.99h-2.33l-1.26-2.87c-.11-.24-.23-.42-.37-.52-.13-.1-.35-.15-.66-.15h-1.76v3.54h-2.24ZM180.41,88.73h2.31c.59,0,1.05-.13,1.38-.39.33-.26.5-.7.5-1.32s-.14-1.04-.43-1.31c-.29-.28-.73-.42-1.31-.42h-2.44v3.44Z"/><path class="cls-2" d="M188.44,94.13v-10.7h2.26l3.14,6.43,3.14-6.43h2.24v10.7h-2.24v-6.96l-2.49,5.12h-1.3l-2.51-5.12v6.96h-2.24Z"/></svg>