<?xml version="1.0" encoding="UTF-8"?><svg id="Layer_1" xmlns="http://www.w3.org/2000/svg" viewBox="0 0 157.27 45.35"><defs><style>.cls-1{fill:#064265;}</style></defs><path class="cls-1" d="M157.27,3.6V0H49.85l-.24.02-.21-.02H0v3.6h20.07v38.16H0v3.6h157.27v-3.6h-16.98V3.6h16.98ZM22.45,3.6h24.57l-24.57,37.13V3.6ZM48.92,41.75h-23.79L48.92,5.8v35.95ZM137.91,41.75h-26.46L136.69,3.6h1.21v38.16ZM110.06,3.6h23.28l-23.28,35.18V3.6ZM51.31,41.75V4.41l24.72,37.34h-24.72ZM77.45,38.81L54.15,3.6h23.3v35.22ZM79.83,41.75V5.88l25.98,35.87h-25.98ZM107.68,39.47L81.7,3.6h25.98v35.87Z"/></svg>